<mxfile host="Electron" agent="Mozilla/5.0 (Windows NT 10.0; Win64; x64) AppleWebKit/537.36 (KHTML, like Gecko) draw.io/24.7.17 Chrome/128.0.6613.36 Electron/32.0.1 Safari/537.36" version="24.7.17">
  <diagram name="Page-1" id="QErqdLrPgQfaffgPfDPG">
    <mxGraphModel dx="2150" dy="1275" grid="1" gridSize="10" guides="1" tooltips="1" connect="1" arrows="1" fold="1" page="1" pageScale="1" pageWidth="850" pageHeight="1100" math="0" shadow="0">
      <root>
        <mxCell id="0" />
        <mxCell id="1" parent="0" />
        <mxCell id="DO0dAlEuMJ1P5hOH4E68-12" value="&lt;b&gt;&lt;font style=&quot;font-size: 18px;&quot;&gt;enable&lt;/font&gt;&lt;/b&gt;" style="text;html=1;align=center;verticalAlign=middle;resizable=0;points=[];autosize=1;strokeColor=none;fillColor=none;shadow=1;" parent="1" vertex="1">
          <mxGeometry x="914.5" y="621" width="80" height="40" as="geometry" />
        </mxCell>
        <mxCell id="DO0dAlEuMJ1P5hOH4E68-13" value="&lt;b&gt;&lt;font style=&quot;font-size: 18px;&quot;&gt;disable&lt;/font&gt;&lt;/b&gt;" style="text;html=1;align=center;verticalAlign=middle;resizable=0;points=[];autosize=1;strokeColor=none;fillColor=none;shadow=1;" parent="1" vertex="1">
          <mxGeometry x="909.5" y="661" width="90" height="40" as="geometry" />
        </mxCell>
        <mxCell id="DO0dAlEuMJ1P5hOH4E68-46" value="" style="rounded=0;whiteSpace=wrap;html=1;dashed=1;dashPattern=8 8;fillColor=none;" parent="1" vertex="1">
          <mxGeometry x="1120" y="295" width="190" height="285" as="geometry" />
        </mxCell>
        <mxCell id="DO0dAlEuMJ1P5hOH4E68-5" value="&lt;font style=&quot;font-size: 24px;&quot;&gt;&lt;b&gt;TIMER &amp;gt;&amp;gt; coutdown&lt;/b&gt;&lt;/font&gt;" style="rounded=1;whiteSpace=wrap;html=1;fillColor=#FFB570;shadow=1;strokeColor=#000000;" parent="1" vertex="1">
          <mxGeometry x="410" y="590" width="510" height="120" as="geometry" />
        </mxCell>
        <mxCell id="DO0dAlEuMJ1P5hOH4E68-6" value="&lt;b&gt;&lt;font style=&quot;font-size: 24px;&quot;&gt;Update Value&lt;/font&gt;&lt;/b&gt;" style="rounded=0;whiteSpace=wrap;html=1;fillColor=#FFD966;shadow=1;strokeColor=#000000;" parent="1" vertex="1">
          <mxGeometry x="410" y="520" width="220" height="50" as="geometry" />
        </mxCell>
        <mxCell id="DO0dAlEuMJ1P5hOH4E68-7" value="" style="curved=1;endArrow=classic;html=1;rounded=0;exitX=0;exitY=0.5;exitDx=0;exitDy=0;entryX=0;entryY=0.5;entryDx=0;entryDy=0;shadow=1;" parent="1" edge="1">
          <mxGeometry width="50" height="50" relative="1" as="geometry">
            <mxPoint x="410" y="655" as="sourcePoint" />
            <mxPoint x="410" y="550" as="targetPoint" />
            <Array as="points">
              <mxPoint x="340" y="655" />
              <mxPoint x="340" y="550" />
            </Array>
          </mxGeometry>
        </mxCell>
        <mxCell id="DO0dAlEuMJ1P5hOH4E68-9" value="&lt;b&gt;&lt;font style=&quot;font-size: 24px;&quot;&gt;EN&lt;/font&gt;&lt;/b&gt;" style="rounded=0;whiteSpace=wrap;html=1;rotation=0;shadow=1;fillColor=#B9E0A5;strokeColor=#000000;" parent="1" vertex="1">
          <mxGeometry x="990" y="610" width="80" height="80" as="geometry" />
        </mxCell>
        <mxCell id="DO0dAlEuMJ1P5hOH4E68-10" value="" style="endArrow=classic;html=1;rounded=0;shadow=1;exitX=0;exitY=0.25;exitDx=0;exitDy=0;" parent="1" source="DO0dAlEuMJ1P5hOH4E68-9" edge="1">
          <mxGeometry width="50" height="50" relative="1" as="geometry">
            <mxPoint x="980" y="630" as="sourcePoint" />
            <mxPoint x="920" y="630" as="targetPoint" />
          </mxGeometry>
        </mxCell>
        <mxCell id="DO0dAlEuMJ1P5hOH4E68-11" value="" style="endArrow=classic;html=1;rounded=0;shadow=1;exitX=0;exitY=0.75;exitDx=0;exitDy=0;" parent="1" source="DO0dAlEuMJ1P5hOH4E68-9" edge="1">
          <mxGeometry width="50" height="50" relative="1" as="geometry">
            <mxPoint x="980" y="670" as="sourcePoint" />
            <mxPoint x="920" y="670" as="targetPoint" />
          </mxGeometry>
        </mxCell>
        <mxCell id="DO0dAlEuMJ1P5hOH4E68-14" value="&lt;b&gt;0&lt;/b&gt;" style="text;html=1;align=center;verticalAlign=middle;resizable=0;points=[];autosize=1;strokeColor=none;fillColor=none;shadow=1;" parent="1" vertex="1">
          <mxGeometry x="942.5" y="650" width="30" height="30" as="geometry" />
        </mxCell>
        <mxCell id="DO0dAlEuMJ1P5hOH4E68-15" value="&lt;b&gt;1&lt;/b&gt;" style="text;html=1;align=center;verticalAlign=middle;resizable=0;points=[];autosize=1;strokeColor=none;fillColor=none;shadow=1;" parent="1" vertex="1">
          <mxGeometry x="942.5" y="610" width="30" height="30" as="geometry" />
        </mxCell>
        <mxCell id="DO0dAlEuMJ1P5hOH4E68-18" value="" style="shape=or;whiteSpace=wrap;html=1;rotation=-90;fillColor=#B9E0A5;shadow=1;strokeColor=#000000;" parent="1" vertex="1">
          <mxGeometry x="487.5" y="382.5" width="60" height="195" as="geometry" />
        </mxCell>
        <mxCell id="rpSVQdoqrtHtzWDqASdn-1" value="" style="edgeStyle=orthogonalEdgeStyle;rounded=0;orthogonalLoop=1;jettySize=auto;html=1;" edge="1" parent="1" source="DO0dAlEuMJ1P5hOH4E68-19" target="DO0dAlEuMJ1P5hOH4E68-6">
          <mxGeometry relative="1" as="geometry" />
        </mxCell>
        <mxCell id="rpSVQdoqrtHtzWDqASdn-2" value="" style="edgeStyle=orthogonalEdgeStyle;rounded=0;orthogonalLoop=1;jettySize=auto;html=1;" edge="1" parent="1" source="DO0dAlEuMJ1P5hOH4E68-19" target="DO0dAlEuMJ1P5hOH4E68-6">
          <mxGeometry relative="1" as="geometry" />
        </mxCell>
        <mxCell id="DO0dAlEuMJ1P5hOH4E68-19" value="&lt;font style=&quot;font-size: 24px;&quot;&gt;&lt;b&gt;Latch&lt;/b&gt;&lt;/font&gt;" style="text;html=1;align=center;verticalAlign=middle;resizable=0;points=[];autosize=1;strokeColor=none;fillColor=none;shadow=1;" parent="1" vertex="1">
          <mxGeometry x="472.5" y="463" width="90" height="40" as="geometry" />
        </mxCell>
        <mxCell id="DO0dAlEuMJ1P5hOH4E68-23" value="&lt;font style=&quot;font-size: 24px;&quot;&gt;&lt;b&gt;Value&lt;/b&gt;&lt;/font&gt;" style="rounded=1;whiteSpace=wrap;html=1;fillColor=#FFD966;shadow=1;strokeColor=#000000;" parent="1" vertex="1">
          <mxGeometry x="458.75" y="382.5" width="117.5" height="60" as="geometry" />
        </mxCell>
        <mxCell id="DO0dAlEuMJ1P5hOH4E68-24" value="" style="shape=flexArrow;endArrow=classic;html=1;rounded=0;width=36.74418604651163;endSize=5.372093023255815;fillColor=#808080;shadow=1;strokeColor=#c4c4c4;" parent="1" edge="1">
          <mxGeometry width="50" height="50" relative="1" as="geometry">
            <mxPoint x="517.54" y="376" as="sourcePoint" />
            <mxPoint x="517.38" y="350" as="targetPoint" />
          </mxGeometry>
        </mxCell>
        <mxCell id="DO0dAlEuMJ1P5hOH4E68-25" value="&lt;font style=&quot;font-size: 24px;&quot;&gt;&lt;b&gt;User&lt;/b&gt;&lt;/font&gt;" style="text;html=1;align=center;verticalAlign=middle;resizable=0;points=[];autosize=1;strokeColor=none;fillColor=none;shadow=1;" parent="1" vertex="1">
          <mxGeometry x="477.5" y="310" width="80" height="40" as="geometry" />
        </mxCell>
        <mxCell id="DO0dAlEuMJ1P5hOH4E68-26" value="&lt;font style=&quot;font-size: 24px;&quot;&gt;&lt;b&gt;Load&lt;/b&gt;&lt;/font&gt;" style="rounded=0;whiteSpace=wrap;html=1;fillColor=#FFD966;shadow=1;strokeColor=#000000;" parent="1" vertex="1">
          <mxGeometry x="795" y="330" width="215" height="77" as="geometry" />
        </mxCell>
        <mxCell id="DO0dAlEuMJ1P5hOH4E68-27" value="&lt;font style=&quot;font-size: 24px;&quot;&gt;&lt;b&gt;ReLoad&lt;/b&gt;&lt;/font&gt;" style="rounded=0;whiteSpace=wrap;html=1;fillColor=#FFD966;shadow=1;strokeColor=#000000;" parent="1" vertex="1">
          <mxGeometry x="795" y="444.5" width="215" height="77" as="geometry" />
        </mxCell>
        <mxCell id="DO0dAlEuMJ1P5hOH4E68-30" value="" style="endArrow=classic;html=1;rounded=0;entryX=0.716;entryY=0;entryDx=0;entryDy=0;entryPerimeter=0;shadow=1;" parent="1" target="DO0dAlEuMJ1P5hOH4E68-5" edge="1">
          <mxGeometry width="50" height="50" relative="1" as="geometry">
            <mxPoint x="795" y="490" as="sourcePoint" />
            <mxPoint x="775" y="550" as="targetPoint" />
            <Array as="points">
              <mxPoint x="790" y="490" />
              <mxPoint x="775" y="490" />
            </Array>
          </mxGeometry>
        </mxCell>
        <mxCell id="DO0dAlEuMJ1P5hOH4E68-31" value="" style="endArrow=none;dashed=1;html=1;rounded=0;entryX=1;entryY=0.591;entryDx=0;entryDy=0;entryPerimeter=0;shadow=1;" parent="1" target="DO0dAlEuMJ1P5hOH4E68-27" edge="1">
          <mxGeometry width="50" height="50" relative="1" as="geometry">
            <mxPoint x="1020" y="610" as="sourcePoint" />
            <mxPoint x="1020" y="490" as="targetPoint" />
            <Array as="points">
              <mxPoint x="1020" y="490" />
            </Array>
          </mxGeometry>
        </mxCell>
        <mxCell id="DO0dAlEuMJ1P5hOH4E68-32" value="" style="endArrow=none;dashed=1;html=1;rounded=0;shadow=1;" parent="1" edge="1">
          <mxGeometry width="50" height="50" relative="1" as="geometry">
            <mxPoint x="1050" y="605" as="sourcePoint" />
            <mxPoint x="1010" y="370" as="targetPoint" />
            <Array as="points">
              <mxPoint x="1050" y="370" />
            </Array>
          </mxGeometry>
        </mxCell>
        <mxCell id="DO0dAlEuMJ1P5hOH4E68-33" value="" style="endArrow=classic;html=1;rounded=0;entryX=0.647;entryY=0;entryDx=0;entryDy=0;entryPerimeter=0;shadow=1;" parent="1" target="DO0dAlEuMJ1P5hOH4E68-5" edge="1">
          <mxGeometry width="50" height="50" relative="1" as="geometry">
            <mxPoint x="795" y="370" as="sourcePoint" />
            <mxPoint x="775" y="470" as="targetPoint" />
            <Array as="points">
              <mxPoint x="790" y="370" />
              <mxPoint x="740" y="370" />
            </Array>
          </mxGeometry>
        </mxCell>
        <mxCell id="DO0dAlEuMJ1P5hOH4E68-34" value="&lt;b&gt;&lt;font style=&quot;font-size: 18px;&quot;&gt;coutdown == 0&lt;/font&gt;&lt;/b&gt;" style="text;html=1;align=center;verticalAlign=middle;resizable=0;points=[];autosize=1;strokeColor=none;fillColor=none;shadow=1;" parent="1" vertex="1">
          <mxGeometry x="770" y="535" width="150" height="40" as="geometry" />
        </mxCell>
        <mxCell id="DO0dAlEuMJ1P5hOH4E68-35" value="&lt;b&gt;&lt;font style=&quot;font-size: 18px;&quot;&gt;EN == 1&lt;/font&gt;&lt;/b&gt;" style="text;html=1;align=center;verticalAlign=middle;resizable=0;points=[];autosize=1;strokeColor=none;fillColor=none;shadow=1;" parent="1" vertex="1">
          <mxGeometry x="650" y="535" width="90" height="40" as="geometry" />
        </mxCell>
        <mxCell id="DO0dAlEuMJ1P5hOH4E68-37" value="" style="shape=flexArrow;endArrow=classic;html=1;rounded=0;width=36.74418604651163;endSize=5.372093023255815;entryX=0.5;entryY=0;entryDx=0;entryDy=0;fillColor=#808080;shadow=1;strokeColor=#C4C4C4;" parent="1" edge="1">
          <mxGeometry width="50" height="50" relative="1" as="geometry">
            <mxPoint x="902.52" y="295" as="sourcePoint" />
            <mxPoint x="902.25" y="325" as="targetPoint" />
            <Array as="points">
              <mxPoint x="902.75" y="295" />
            </Array>
          </mxGeometry>
        </mxCell>
        <mxCell id="DO0dAlEuMJ1P5hOH4E68-38" value="&lt;font style=&quot;font-size: 24px;&quot;&gt;&lt;b&gt;User&lt;/b&gt;&lt;/font&gt;" style="text;html=1;align=center;verticalAlign=middle;resizable=0;points=[];autosize=1;strokeColor=none;fillColor=none;shadow=1;" parent="1" vertex="1">
          <mxGeometry x="862.5" y="255" width="80" height="40" as="geometry" />
        </mxCell>
        <mxCell id="DO0dAlEuMJ1P5hOH4E68-44" value="&lt;b style=&quot;&quot;&gt;&lt;font style=&quot;font-size: 18px;&quot;&gt;{Polling}&lt;/font&gt;&lt;/b&gt;" style="text;html=1;align=left;verticalAlign=middle;resizable=0;points=[];autosize=1;strokeColor=none;fillColor=none;shadow=1;" parent="1" vertex="1">
          <mxGeometry x="400" y="340" width="100" height="40" as="geometry" />
        </mxCell>
        <mxCell id="DO0dAlEuMJ1P5hOH4E68-41" value="&lt;font style=&quot;font-size: 18px;&quot;&gt;&lt;b style=&quot;&quot;&gt;&lt;font style=&quot;&quot;&gt;{One-Shot} :&lt;/font&gt;&amp;nbsp;&lt;/b&gt;&lt;/font&gt;&lt;div&gt;&lt;font style=&quot;font-size: 15px;&quot;&gt;&lt;b style=&quot;&quot;&gt;&amp;gt;&amp;gt; EN = 0&amp;nbsp;&lt;/b&gt;&lt;/font&gt;&lt;/div&gt;&lt;div&gt;&lt;span style=&quot;background-color: initial;&quot;&gt;&lt;font size=&quot;3&quot; style=&quot;&quot;&gt;&lt;b&gt;&amp;gt;&amp;gt; ReLoad = 0&lt;/b&gt;&lt;/font&gt;&lt;/span&gt;&lt;/div&gt;&lt;div&gt;&lt;span style=&quot;background-color: initial;&quot;&gt;&lt;font size=&quot;3&quot; style=&quot;&quot;&gt;&lt;b&gt;&amp;gt;&amp;gt; Load = time&lt;/b&gt;&lt;/font&gt;&lt;/span&gt;&lt;/div&gt;&lt;div&gt;&lt;span style=&quot;background-color: initial;&quot;&gt;&lt;font size=&quot;3&quot; style=&quot;&quot;&gt;&lt;b style=&quot;&quot;&gt;&amp;gt;&amp;gt; EN = 1&lt;/b&gt;&lt;/font&gt;&lt;/span&gt;&lt;/div&gt;" style="text;html=1;align=left;verticalAlign=middle;resizable=0;points=[];autosize=1;strokeColor=none;fillColor=none;shadow=1;" parent="1" vertex="1">
          <mxGeometry x="1140" y="320" width="140" height="110" as="geometry" />
        </mxCell>
        <mxCell id="DO0dAlEuMJ1P5hOH4E68-42" value="&lt;font style=&quot;font-size: 18px;&quot;&gt;&lt;b style=&quot;&quot;&gt;&lt;font style=&quot;&quot;&gt;{Periodic} :&lt;/font&gt;&amp;nbsp;&lt;/b&gt;&lt;/font&gt;&lt;div&gt;&lt;font style=&quot;font-size: 15px;&quot;&gt;&lt;b style=&quot;&quot;&gt;&amp;gt;&amp;gt; EN = 0&amp;nbsp;&lt;/b&gt;&lt;/font&gt;&lt;/div&gt;&lt;div&gt;&lt;span style=&quot;background-color: initial;&quot;&gt;&lt;font size=&quot;3&quot; style=&quot;&quot;&gt;&lt;b style=&quot;&quot;&gt;&amp;gt;&amp;gt; ReLoad = time&lt;/b&gt;&lt;/font&gt;&lt;/span&gt;&lt;/div&gt;&lt;div&gt;&lt;span style=&quot;background-color: initial;&quot;&gt;&lt;font size=&quot;3&quot; style=&quot;&quot;&gt;&lt;b&gt;&amp;gt;&amp;gt; Load = 0&lt;/b&gt;&lt;/font&gt;&lt;/span&gt;&lt;/div&gt;&lt;div&gt;&lt;span style=&quot;background-color: initial;&quot;&gt;&lt;font size=&quot;3&quot; style=&quot;&quot;&gt;&lt;b style=&quot;&quot;&gt;&amp;gt;&amp;gt; EN = 1&lt;/b&gt;&lt;/font&gt;&lt;/span&gt;&lt;/div&gt;" style="text;html=1;align=left;verticalAlign=middle;resizable=0;points=[];autosize=1;strokeColor=none;fillColor=none;shadow=1;" parent="1" vertex="1">
          <mxGeometry x="1140" y="440" width="160" height="110" as="geometry" />
        </mxCell>
      </root>
    </mxGraphModel>
  </diagram>
</mxfile>
